<?xml version="1.0" encoding="UTF-8"?>
<svg width="32px" height="32px" viewBox="0 0 32 32" version="1.1" xmlns="http://www.w3.org/2000/svg" xmlns:xlink="http://www.w3.org/1999/xlink">
    <!-- Generator: Sketch 46.2 (44496) - http://www.bohemiancoding.com/sketch -->
    <title>Instagram Copywhite</title>
    <desc>Created with Sketch.</desc>
    <defs></defs>
    <g id="Page-1" stroke="none" stroke-width="1" fill="none" fill-rule="evenodd">
        <g id="Artboard-3" transform="translate(-595.000000, -252.000000)">
            <g id="Instagram-Copy" transform="translate(587.000000, 245.000000)">
                <g id="Group-5">
                    <rect id="Rectangle" x="0" y="0" width="48" height="48"></rect>
                    <path d="M24.0015,7 C19.6561214,7 19.1107824,7.019 17.404098,7.09666667 C15.7007469,7.17466667 14.5380681,7.44433333 13.5207242,7.84 C12.4683799,8.24866667 11.5757039,8.79533333 10.6863613,9.685 C9.79635205,10.5743333 9.24967968,11.467 8.83967541,12.519 C8.44300461,13.5366667 8.1730018,14.6996667 8.09633434,16.4023333 C8.02000021,18.109 8,18.6546667 8,23 C8,27.3453333 8.01933353,27.889 8.09666767,29.5956667 C8.17500182,31.299 8.4446713,32.4616667 8.84000875,33.479 C9.24901301,34.5313333 9.79568537,35.424 10.6853613,36.3133333 C11.5743706,37.2033333 12.4670465,37.7513333 13.5187242,38.16 C14.5367348,38.5556667 15.6997469,38.8253333 17.4027646,38.9033333 C19.1094491,38.981 19.6544547,39 23.9995,39 C28.3452119,39 28.8888843,38.981 30.5955687,38.9033333 C32.2989198,38.8253333 33.4629319,38.5556667 34.4809425,38.16 C35.5329535,37.7513333 36.4242961,37.2033333 37.3133053,36.3133333 C38.2033146,35.424 38.749987,34.5313333 39.1599912,33.4793333 C39.5533287,32.4616667 39.8233315,31.2986667 39.9033323,29.596 C39.9799998,27.8893333 40,27.3453333 40,23 C40,18.6546667 39.9799998,18.1093333 39.9033323,16.4026667 C39.8233315,14.6993333 39.5533287,13.5366667 39.1599912,12.5193333 C38.749987,11.467 38.2033146,10.5743333 37.3133053,9.685 C36.4232961,8.795 35.5332868,8.24833333 34.4799425,7.84 C33.4599319,7.44433333 32.2965864,7.17466667 30.5932353,7.09666667 C28.8865509,7.019 28.3432119,7 23.9965,7 L24.0015,7 Z M22.5661517,9.88333333 C22.9921562,9.88266667 23.4674945,9.88333333 24.0015,9.88333333 C28.2735445,9.88333333 28.7798831,9.89866667 30.4669007,9.97533333 C32.0269169,10.0466667 32.8735924,10.3073333 33.4375983,10.5263333 C34.1842728,10.8163333 34.7166116,11.163 35.2762841,11.723 C35.83629,12.283 36.1829602,12.8163333 36.4736299,13.563 C36.6926322,14.1263333 36.9536349,14.973 37.0246357,16.533 C37.1013031,18.2196667 37.11797,18.7263333 37.11797,22.9963333 C37.11797,27.2663333 37.1013031,27.773 37.0246357,29.4596667 C36.9533016,31.0196667 36.6926322,31.8663333 36.4736299,32.4296667 C36.1836269,33.1763333 35.83629,33.708 35.2762841,34.2676667 C34.7162783,34.8276667 34.1846061,35.1743333 33.4375983,35.4643333 C32.8742591,35.6843333 32.0269169,35.9443333 30.4669007,36.0156667 C28.7802165,36.0923333 28.2735445,36.109 24.0015,36.109 C19.7291222,36.109 19.2227836,36.0923333 17.5360993,36.0156667 C15.9760831,35.9436667 15.1294076,35.683 14.5650684,35.464 C13.8183939,35.174 13.2850551,34.8273333 12.7250492,34.2673333 C12.1650434,33.7073333 11.8183731,33.1753333 11.5277034,32.4283333 C11.3087011,31.865 11.0476984,31.0183333 10.9766977,29.4583333 C10.9000302,27.7716667 10.8846967,27.265 10.8846967,22.9923333 C10.8846967,18.7196667 10.9000302,18.2156667 10.9766977,16.529 C11.0480318,14.969 11.3087011,14.1223333 11.5277034,13.5583333 C11.8177064,12.8116667 12.1650434,12.2783333 12.7250492,11.7183333 C13.2850551,11.1583333 13.8183939,10.8116667 14.5650684,10.521 C15.1290743,10.301 15.9760831,10.041 17.5360993,9.96933333 C19.0121147,9.90266667 19.5841207,9.88266667 22.5661517,9.87933333 L22.5661517,9.88333333 Z M32.5422556,12.54 C31.4822446,12.54 30.6222356,13.399 30.6222356,14.4593333 C30.6222356,15.5193333 31.4822446,16.3793333 32.5422556,16.3793333 C33.6022667,16.3793333 34.4622756,15.5193333 34.4622756,14.4593333 C34.4622756,13.3993333 33.6022667,12.5393333 32.5422556,12.5393333 L32.5422556,12.54 Z M24.0015,14.7833333 C19.4637861,14.7833333 15.7847478,18.4623333 15.7847478,23 C15.7847478,27.5376667 19.4637861,31.215 24.0015,31.215 C28.539214,31.215 32.2169189,27.5376667 32.2169189,23 C32.2169189,18.4623333 28.5388806,14.7833333 24.0011667,14.7833333 L24.0015,14.7833333 Z M24.0015,17.6666667 C26.946864,17.6666667 29.3348889,20.0543333 29.3348889,23 C29.3348889,25.9453333 26.946864,28.3333333 24.0015,28.3333333 C21.0558027,28.3333333 18.6681111,25.9453333 18.6681111,23 C18.6681111,20.0543333 21.0558027,17.6666667 24.0015,17.6666667 L24.0015,17.6666667 Z" id="Shape" fill="#FFFFFF"></path>
                </g>
                <g id="Instagram" transform="translate(4.000000, 3.000000)"></g>
            </g>
        </g>
    </g>
</svg>