<?xml version="1.0" encoding="UTF-8"?>
<svg width="32px" height="31px" viewBox="0 0 32 31" version="1.1" xmlns="http://www.w3.org/2000/svg" xmlns:xlink="http://www.w3.org/1999/xlink">
    <!-- Generator: Sketch 46.2 (44496) - http://www.bohemiancoding.com/sketch -->
    <title>LinkedIn Copywhite</title>
    <desc>Created with Sketch.</desc>
    <defs></defs>
    <g id="Page-1" stroke="none" stroke-width="1" fill="none" fill-rule="evenodd">
        <g id="Artboard-3" transform="translate(-933.000000, -254.000000)">
            <g id="LinkedIn-Copy" transform="translate(925.000000, 245.000000)">
                <rect id="Rectangle" x="0" y="0" width="48" height="48"></rect>
                <g id="LinkedIN" transform="translate(8.000000, 9.000000)" fill="#FFFFFF">
                    <path d="M7.20067746,9.84731039 L7.20067746,30.2744497 L0.402021419,30.2744497 L0.402021419,9.84731039 L7.20067746,9.84731039 Z M7.6484541,3.52837213 C7.6484541,5.48975386 6.17206744,7.05918463 3.80148521,7.05918463 L3.75803812,7.05918463 C1.47557203,7.05918463 0,5.48975386 0,3.52837213 C0,1.52550406 1.52051262,0 3.84629003,0 C6.17206744,0 7.60432815,1.52550406 7.6484541,3.52837213 Z M31.719232,18.5621523 L31.7189605,30.2744497 L24.920576,30.2744497 L24.920576,19.3459186 C24.920576,16.6009061 23.9367708,14.7277845 21.4756285,14.7277845 C19.5973562,14.7277845 18.4785934,15.9905418 17.9872339,17.2101858 C17.8074716,17.6472837 17.7633456,18.2562922 17.7633456,18.8667921 L17.7633456,30.274992 L10.9638749,30.274992 C10.9638749,30.274992 11.0534846,11.7646298 10.9638749,9.84785269 L17.7633456,9.84785269 L17.7633456,12.7411856 C18.6656875,11.3503088 20.2817837,9.36764159 23.8914228,9.36764159 C28.3652519,9.36764159 31.719232,12.2878186 31.719232,18.5621523 Z" id="Shape"></path>
                </g>
            </g>
        </g>
    </g>
</svg>